<mxfile host="app.diagrams.net" modified="2023-09-12T00:31:32.786Z" agent="Mozilla/5.0 (Macintosh; Intel Mac OS X 10.15; rv:109.0) Gecko/20100101 Firefox/117.0" version="21.7.4" etag="xB1pO71JRIHVwrlmg_az" type="github">
  <diagram name="PÃ¡gina-1" id="HHZkWnQ3QFmK1URnwjJ-">
    <mxGraphModel>
      <root>
        <mxCell id="0" />
        <mxCell id="1" parent="0" />
      </root>
    </mxGraphModel>
  </diagram>
</mxfile>
